<svg xmlns="http://www.w3.org/2000/svg" version="1.1" xmlns:xlink="http://www.w3.org/1999/xlink" xmlns:svgjs="http://svgjs.com/svgjs" width="1000" height="1000"><rect width="1000" height="1000" rx="250" ry="250" fill="#75d1ff"></rect><g transform="matrix(1.7578125,0,0,1.7578125,50,50)"><svg xmlns="http://www.w3.org/2000/svg" version="1.1" xmlns:xlink="http://www.w3.org/1999/xlink" xmlns:svgjs="http://svgjs.com/svgjs" width="512" height="512"><svg width="512" height="512" viewBox="0 0 512 512" fill="none" xmlns="http://www.w3.org/2000/svg">
<path d="M512 0H0V512H512V0Z" fill="#0B0C0C"></path>
<path d="M306.746 128C303.157 128 299.661 127.999 296.701 128.241C293.45 128.507 289.613 129.133 285.753 131.1C280.401 133.827 276.05 138.179 273.322 143.531C271.356 147.391 270.729 151.227 270.463 154.479C270.221 157.439 270.222 160.935 270.222 164.524V233.698C270.222 237.288 270.221 240.783 270.463 243.744C270.729 246.995 271.356 250.831 273.322 254.691C276.05 260.043 280.401 264.395 285.753 267.122C289.613 269.089 293.45 269.716 296.701 269.981C299.661 270.223 303.157 270.223 306.747 270.222H347.476C351.065 270.223 354.561 270.223 357.521 269.981C360.773 269.716 364.609 269.089 368.469 267.122C373.821 264.395 378.173 260.043 380.9 254.691C382.867 250.831 383.493 246.995 383.759 243.744C384.001 240.783 384 237.288 384 233.698V164.524C384 160.935 384.001 157.439 383.759 154.479C383.493 151.227 382.867 147.391 380.9 143.531C378.173 138.179 373.821 133.827 368.469 131.1C364.609 129.133 360.773 128.507 357.521 128.241C354.561 127.999 351.065 128 347.476 128L306.746 128Z" fill="#2F3436"></path>
<path d="M164.524 241.778C160.935 241.777 157.439 241.777 154.479 242.019C151.227 242.284 147.391 242.911 143.531 244.878C138.179 247.605 133.827 251.957 131.1 257.309C129.133 261.169 128.507 265.005 128.241 268.256C127.999 271.217 128 274.712 128 278.302L128 347.476C128 351.065 127.999 354.561 128.241 357.521C128.507 360.773 129.133 364.609 131.1 368.469C133.827 373.821 138.179 378.173 143.531 380.9C147.391 382.867 151.227 383.493 154.479 383.759C157.439 384.001 160.935 384 164.524 384H205.253C208.843 384 212.339 384.001 215.299 383.759C218.55 383.493 222.387 382.867 226.247 380.9C231.599 378.173 235.95 373.821 238.678 368.469C240.644 364.609 241.271 360.773 241.537 357.521C241.779 354.561 241.778 351.066 241.778 347.476V278.302C241.778 274.713 241.779 271.217 241.537 268.256C241.271 265.005 240.644 261.169 238.678 257.309C235.95 251.957 231.599 247.605 226.247 244.878C222.387 242.911 218.55 242.284 215.299 242.019C212.339 241.777 208.843 241.777 205.254 241.778H164.524Z" fill="#2F3436"></path>
<path d="M164.524 128C160.935 128 157.439 127.999 154.479 128.241C151.227 128.507 147.391 129.133 143.531 131.1C138.179 133.827 133.827 138.179 131.1 143.531C129.133 147.391 128.507 151.227 128.241 154.479C127.999 157.439 128 160.935 128 164.524L128 176.809C128 180.399 127.999 183.894 128.241 186.855C128.507 190.106 129.133 193.942 131.1 197.802C133.827 203.155 138.179 207.506 143.531 210.233C147.391 212.2 151.227 212.827 154.479 213.092C157.439 213.334 160.935 213.334 164.524 213.333H205.254C208.843 213.334 212.339 213.334 215.299 213.092C218.55 212.827 222.387 212.2 226.247 210.233C231.599 207.506 235.95 203.155 238.678 197.802C240.644 193.942 241.271 190.106 241.537 186.855C241.779 183.895 241.778 180.399 241.778 176.81V164.524C241.778 160.935 241.779 157.439 241.537 154.479C241.271 151.227 240.644 147.391 238.678 143.531C235.95 138.179 231.599 133.827 226.247 131.1C222.387 129.133 218.55 128.507 215.299 128.241C212.339 127.999 208.843 128 205.254 128L164.524 128Z" fill="#75D1FF"></path>
<path d="M306.746 298.667C303.157 298.666 299.661 298.666 296.701 298.908C293.45 299.173 289.613 299.8 285.753 301.767C280.401 304.494 276.05 308.845 273.322 314.198C271.356 318.058 270.729 321.894 270.463 325.145C270.221 328.106 270.222 331.601 270.222 335.191V347.476C270.222 351.065 270.221 354.561 270.463 357.521C270.729 360.773 271.356 364.609 273.322 368.469C276.05 373.821 280.401 378.173 285.753 380.9C289.613 382.867 293.45 383.493 296.701 383.759C299.661 384.001 303.157 384 306.746 384H347.476C351.065 384 354.561 384.001 357.521 383.759C360.773 383.493 364.609 382.867 368.469 380.9C373.821 378.173 378.173 373.821 380.9 368.469C382.867 364.609 383.493 360.773 383.759 357.521C384.001 354.561 384 351.065 384 347.476V335.191C384 331.601 384.001 328.106 383.759 325.145C383.493 321.894 382.867 318.058 380.9 314.198C378.173 308.845 373.821 304.494 368.469 301.767C364.609 299.8 360.773 299.173 357.521 298.908C354.561 298.666 351.065 298.666 347.476 298.667H306.746Z" fill="#75D1FF"></path>
</svg></svg></g></svg>